<svg xmlns="http://www.w3.org/2000/svg" width="1200" height="630" viewBox="0 0 1200 630" role="img" aria-labelledby="title desc">
  <title id="title">Multiserwis Kutno - usługi dla przemysłu</title>
  <desc id="desc">Grafika social preview dla strony Multiserwis Kutno</desc>
  <defs>
    <linearGradient id="bg" x1="0" y1="0" x2="1" y2="1">
      <stop offset="0%" stop-color="#0B1220" />
      <stop offset="52%" stop-color="#111827" />
      <stop offset="100%" stop-color="#261A07" />
    </linearGradient>
    <linearGradient id="accent" x1="0" y1="0" x2="1" y2="1">
      <stop offset="0%" stop-color="#F59E0B" />
      <stop offset="100%" stop-color="#D97706" />
    </linearGradient>
    <filter id="blur" x="-20%" y="-20%" width="140%" height="140%">
      <feGaussianBlur stdDeviation="40" />
    </filter>
  </defs>

  <rect width="1200" height="630" fill="url(#bg)" />
  <circle cx="962" cy="138" r="150" fill="#F59E0B" opacity="0.18" filter="url(#blur)" />
  <circle cx="284" cy="524" r="180" fill="#94A3B8" opacity="0.08" filter="url(#blur)" />
  <g opacity="0.12" stroke="#E5E7EB">
    <path d="M0 118H1200" />
    <path d="M0 236H1200" />
    <path d="M0 354H1200" />
    <path d="M0 472H1200" />
    <path d="M160 0V630" />
    <path d="M320 0V630" />
    <path d="M480 0V630" />
    <path d="M640 0V630" />
    <path d="M800 0V630" />
    <path d="M960 0V630" />
  </g>

  <rect x="70" y="70" width="1060" height="490" rx="28" fill="none" stroke="#374151" stroke-width="2" />
  <rect x="96" y="96" width="164" height="164" rx="30" fill="#0F172A" stroke="#F59E0B" stroke-width="3" />
  <text x="178" y="198" text-anchor="middle" font-family="Arial Narrow, Bahnschrift, sans-serif" font-size="88" font-weight="700" fill="#F9FAFB">MS</text>

  <text x="96" y="334" font-family="Arial Narrow, Bahnschrift, sans-serif" font-size="28" letter-spacing="8" font-weight="700" fill="#F59E0B">USŁUGI DLA PRZEMYSŁU</text>
  <text x="96" y="410" font-family="Arial Narrow, Bahnschrift, sans-serif" font-size="84" font-weight="700" fill="#F9FAFB">MULTISERWIS</text>
  <text x="96" y="484" font-family="Arial Narrow, Bahnschrift, sans-serif" font-size="84" font-weight="700" fill="url(#accent)">KUTNO</text>
  <text x="96" y="544" font-family="Segoe UI, Arial, sans-serif" font-size="30" fill="#D1D5DB">Wynajem maszyn, relokacje, UDT, elektryka i usługi techniczne</text>
</svg>